<?xml version="1.0" encoding="utf-8"?>
<!-- Generator: Adobe Illustrator 27.3.1, SVG Export Plug-In . SVG Version: 6.00 Build 0)  -->
<svg version="1.1" id="Layer_1" xmlns="http://www.w3.org/2000/svg" xmlns:xlink="http://www.w3.org/1999/xlink" x="0px" y="0px"
	 viewBox="0 0 47.69 26.77" style="enable-background:new 0 0 47.69 26.77;" xml:space="preserve">
<style type="text/css">
	.st0{fill:#80FCFF;}
</style>
<path id="XMLID_19_" class="st0" d="M26.21,25.94c-2.58,0-4.81-0.89-6.72-2.7c-1.88-1.81-2.82-3.97-2.82-6.5
	c0-2.61,0.92-4.84,2.75-6.69c1.86-1.86,4.06-2.79,6.67-2.79c2.61,0,4.84,0.89,6.74,2.68c1.9,1.76,2.84,3.92,2.84,6.48
	c0,2.61-0.94,4.86-2.79,6.74C31.02,25,28.82,25.94,26.21,25.94z M33.94,16.52c-0.02-2.09-0.82-3.87-2.35-5.33s-3.33-2.18-5.45-2.18
	c-2.09,0-3.87,0.75-5.38,2.23s-2.25,3.26-2.25,5.35c0,2.07,0.75,3.85,2.25,5.33c1.5,1.48,3.31,2.23,5.4,2.25
	c2.14,0.02,3.97-0.73,5.49-2.23C33.18,20.44,33.96,18.64,33.94,16.52z"/>
<path id="XMLID_16_" class="st0" d="M41.97,18.52c1.36-0.12,2.51-0.7,3.43-1.71c0.92-1.03,1.41-2.25,1.43-3.66
	c0.02-1.71-0.54-3.12-1.74-4.23c-1.2-1.1-2.79-1.67-4.79-1.67h-2.32h-0.73h-5.72c0.84,0.45,1.63,1.03,2.38,1.72l6.51-0.03
	c1.36,0,2.47,0.38,3.29,1.15c0.77,0.7,1.17,1.62,1.22,2.75c0.07,1.24-0.38,2.25-1.29,3.08c-0.92,0.82-2.18,1.22-3.76,1.22h-1.76
	l6.11,8.17h2.23l-5-6.74L41.97,18.52z"/>
<path id="XMLID_15_" class="st0" d="M18.6,0.55c-3.07,7.62-6.14,15.25-9.21,22.87L3.07,7.25H0.85l7.65,18.4h1.78
	c3.44-8.37,6.88-16.73,10.32-25.1H18.6z"/>
</svg>
