<?xml version="1.0" encoding="utf-8"?>
<!-- Generator: Adobe Illustrator 28.0.0, SVG Export Plug-In . SVG Version: 6.00 Build 0)  -->
<svg version="1.1" id="Layer_1" xmlns="http://www.w3.org/2000/svg" xmlns:xlink="http://www.w3.org/1999/xlink" x="0px" y="0px"
	 viewBox="0 0 47.69 26.77" style="enable-background:new 0 0 47.69 26.77;" xml:space="preserve">
<style type="text/css">
	.st0{fill:url(#XMLID_00000154402596701278075000000003789539639238031494_);}
	.st1{fill:url(#XMLID_00000160155724192101565880000012494308884619594634_);}
	.st2{fill:url(#XMLID_00000090290008054827629990000008807810992711226537_);}
</style>
<linearGradient id="XMLID_00000085933844832061233260000011475112656982976129_" gradientUnits="userSpaceOnUse" x1="16.6761" y1="16.5925" x2="35.6734" y2="16.5925">
	<stop  offset="0" style="stop-color:#AEBAF8"/>
	<stop  offset="0.0712" style="stop-color:#9CA2F8"/>
	<stop  offset="0.1611" style="stop-color:#8B8CF9"/>
	<stop  offset="0.266" style="stop-color:#7D7AF9"/>
	<stop  offset="0.3935" style="stop-color:#746EF9"/>
	<stop  offset="0.5676" style="stop-color:#6F67F9"/>
	<stop  offset="1" style="stop-color:#6D65F9"/>
</linearGradient>
<path id="XMLID_19_" style="fill:url(#XMLID_00000085933844832061233260000011475112656982976129_);" d="M26.21,25.94
	c-2.58,0-4.81-0.89-6.72-2.7c-1.88-1.81-2.82-3.97-2.82-6.5c0-2.61,0.92-4.84,2.75-6.69c1.86-1.86,4.06-2.79,6.67-2.79
	c2.61,0,4.84,0.89,6.74,2.68c1.9,1.76,2.84,3.92,2.84,6.48c0,2.61-0.94,4.86-2.79,6.74C31.02,25,28.82,25.94,26.21,25.94z
	 M33.94,16.52c-0.02-2.09-0.82-3.87-2.35-5.33s-3.33-2.18-5.45-2.18c-2.09,0-3.87,0.75-5.38,2.23s-2.25,3.26-2.25,5.35
	c0,2.07,0.75,3.85,2.25,5.33c1.5,1.48,3.31,2.23,5.4,2.25c2.14,0.02,3.97-0.73,5.49-2.23C33.18,20.44,33.96,18.64,33.94,16.52z"/>
<linearGradient id="XMLID_00000119799060548307750240000005783062899687858322_" gradientUnits="userSpaceOnUse" x1="31.5346" y1="16.2755" x2="46.8343" y2="16.2755">
	<stop  offset="0" style="stop-color:#AEBAF8"/>
	<stop  offset="0.0712" style="stop-color:#9CA2F8"/>
	<stop  offset="0.1611" style="stop-color:#8B8CF9"/>
	<stop  offset="0.266" style="stop-color:#7D7AF9"/>
	<stop  offset="0.3935" style="stop-color:#746EF9"/>
	<stop  offset="0.5676" style="stop-color:#6F67F9"/>
	<stop  offset="1" style="stop-color:#6D65F9"/>
</linearGradient>
<path id="XMLID_16_" style="fill:url(#XMLID_00000119799060548307750240000005783062899687858322_);" d="M41.97,18.52
	c1.36-0.12,2.51-0.7,3.43-1.71c0.92-1.03,1.41-2.25,1.43-3.66c0.02-1.71-0.54-3.12-1.74-4.23c-1.2-1.1-2.79-1.67-4.79-1.67h-2.32
	h-0.73h-5.72c0.84,0.45,1.63,1.03,2.38,1.72l6.51-0.03c1.36,0,2.47,0.38,3.29,1.15c0.77,0.7,1.17,1.62,1.22,2.75
	c0.07,1.24-0.38,2.25-1.29,3.08c-0.92,0.82-2.18,1.22-3.76,1.22h-1.76l6.11,8.17h2.23l-5-6.74L41.97,18.52z"/>
<linearGradient id="XMLID_00000123412461051188928740000015257892905670364069_" gradientUnits="userSpaceOnUse" x1="0.8524" y1="13.0954" x2="20.598" y2="13.0954">
	<stop  offset="0" style="stop-color:#AEBAF8"/>
	<stop  offset="0.0712" style="stop-color:#9CA2F8"/>
	<stop  offset="0.1611" style="stop-color:#8B8CF9"/>
	<stop  offset="0.266" style="stop-color:#7D7AF9"/>
	<stop  offset="0.3935" style="stop-color:#746EF9"/>
	<stop  offset="0.5676" style="stop-color:#6F67F9"/>
	<stop  offset="1" style="stop-color:#6D65F9"/>
</linearGradient>
<path id="XMLID_15_" style="fill:url(#XMLID_00000123412461051188928740000015257892905670364069_);" d="M18.6,0.55
	c-3.07,7.62-6.14,15.25-9.21,22.87L3.07,7.25H0.85l7.65,18.4h1.78c3.44-8.37,6.88-16.73,10.32-25.1H18.6z"/>
</svg>
